<svg width="24" height="24" viewBox="0 0 24 24" fill="none" xmlns="http://www.w3.org/2000/svg">
<path d="M9.09091 15.6935C9.09091 13.8843 9.9183 12.1939 11.4226 10.9271C12.8914 9.69194 14.8352 9.01101 16.9017 9.01101C17.5707 9.01101 18.2437 9.08625 18.893 9.22876C18.8494 4.87405 14.6372 1.35071 9.4472 1.35071C4.23344 1.35071 0.00146484 4.90967 0.00146484 9.29999C0.00146484 11.6872 1.25639 13.8249 3.23581 15.2818L1.81856 18.2469C1.78689 18.3103 1.81064 18.3855 1.87398 18.4172C1.90962 18.437 1.95713 18.437 1.99669 18.4132L5.42505 16.4892L5.42108 16.4853C6.65623 16.9722 7.97055 17.2256 9.29677 17.2414C9.16217 16.7347 9.09091 16.2161 9.09091 15.6935ZM12.832 5.93502C13.4654 5.93502 13.9761 6.44571 13.9761 7.0791C13.9761 7.7125 13.4654 8.22319 12.832 8.22319C12.1986 8.22319 11.6879 7.7125 11.6879 7.0791C11.6879 6.44571 12.1986 5.93502 12.832 5.93502H12.832ZM6.03075 8.22319C5.39736 8.22319 4.88667 7.7125 4.88667 7.0791C4.88667 6.44571 5.39736 5.93502 6.03075 5.93105C6.66415 5.93105 7.17484 6.44173 7.17881 7.07513C7.17881 7.71253 6.66415 8.22322 6.03075 8.22322V8.22319Z" fill="#B0B8BC"/>
<path d="M21.5731 20.1907C23.0617 19.0941 23.9999 17.4829 23.9999 15.6935C23.9999 12.9738 21.8305 10.6737 18.8653 9.95714C18.224 9.80277 17.5668 9.72754 16.9057 9.72754C12.9865 9.72754 9.81152 12.3997 9.81152 15.6935C9.81152 16.216 9.8907 16.7307 10.049 17.2255C10.8527 19.779 13.6199 21.6634 16.9057 21.6634C17.9389 21.6673 18.9643 21.4733 19.9263 21.0972L22.2066 22.3759C22.3016 22.4274 22.4282 22.3957 22.4797 22.2968C22.4956 22.2693 22.5046 22.2384 22.506 22.2067C22.5073 22.175 22.501 22.1434 22.4876 22.1147L21.5732 20.1907H21.5731ZM15.2192 14.1377C15.1678 14.5256 14.863 14.8265 14.4789 14.878C14.0078 14.9413 13.5763 14.6048 13.513 14.1377C13.4497 13.6666 13.7862 13.235 14.2533 13.1717C14.7244 13.1084 15.1559 13.4449 15.2192 13.912C15.2272 13.9912 15.2272 14.0664 15.2192 14.1377ZM19.471 14.8859C18.996 14.8859 18.612 14.4979 18.612 14.0268C18.612 13.5557 18.9999 13.1678 19.471 13.1678C19.9461 13.1678 20.3301 13.5557 20.3301 14.0268C20.3301 14.4979 19.9421 14.8859 19.471 14.8859Z" fill="#B0B8BC"/>
</svg>
